<svg xmlns="http://www.w3.org/2000/svg" xmlns:xlink="http://www.w3.org/1999/xlink" width="500"
    zoomAndPan="magnify" viewBox="0 0 375 374.999991" height="500"
    preserveAspectRatio="xMidYMid meet" version="1.0">
    <defs>
        <g />
        <clipPath id="18193e4a95">
            <path
                d="M 103.238281 125.851562 L 271.757812 125.851562 L 271.757812 172.917969 L 103.238281 172.917969 Z M 103.238281 125.851562 "
                clip-rule="nonzero" />
        </clipPath>
    </defs>
    <g clip-path="url(#18193e4a95)">
        <path fill="#ffbd59"
            d="M 261.105469 145.136719 C 257.964844 145.179688 255.019531 146.722656 253.207031 149.296875 C 248.839844 155.460938 249.316406 163.824219 254.34375 169.460938 C 234.191406 168.492188 213.980469 168.984375 193.886719 170.929688 C 196.96875 168.191406 200.410156 165.886719 204.105469 164.0625 C 217.105469 163.703125 230.121094 164.03125 243.109375 165.050781 C 230.003906 162.910156 216.746094 162.101562 203.492188 162.640625 C 198.195312 165.273438 193.378906 168.746094 189.21875 172.917969 C 211.988281 170.285156 234.925781 169.460938 257.832031 170.449219 C 251.382812 165.753906 249.902344 156.746094 254.507812 150.238281 C 257.128906 146.511719 262.273438 145.628906 265.984375 148.25 C 267.121094 149.054688 268.035156 150.117188 268.632812 151.375 C 271.101562 157.957031 269.933594 165.347656 265.566406 170.855469 C 271.609375 166.007812 273.496094 157.613281 270.082031 150.65625 C 268.421875 147.246094 264.921875 145.089844 261.121094 145.136719 Z M 178.867188 143.773438 C 174.722656 143.773438 170.789062 145.628906 168.152344 148.832031 C 162.859375 155.085938 162.230469 164.0625 166.628906 170.988281 C 162.230469 171.046875 157.890625 169.941406 154.0625 167.800781 L 139.308594 158.105469 C 135.867188 155.625 131.769531 154.203125 127.519531 154.054688 L 103.882812 153.605469 C 103.269531 155.101562 103.449219 156.789062 104.359375 158.105469 C 106.84375 161.414062 109.925781 164.210938 113.441406 166.367188 C 114.128906 166.816406 114.683594 167.441406 115.042969 168.191406 L 103.238281 168.699219 L 116.972656 168.96875 C 116.671875 167.324219 115.699219 165.886719 114.292969 165.003906 C 110.957031 162.953125 108.027344 160.292969 105.675781 157.164062 C 105.289062 156.609375 105.09375 155.921875 105.136719 155.25 L 127.476562 155.667969 C 131.394531 155.804688 135.195312 157.121094 138.382812 159.4375 L 153.207031 169.179688 C 157.964844 171.855469 163.441406 173.007812 168.871094 172.46875 C 163.007812 164.617188 164.625 153.484375 172.492188 147.621094 C 173.046875 147.199219 173.613281 146.828125 174.214844 146.484375 C 180.992188 144.042969 188.441406 147.574219 190.878906 154.351562 C 190.984375 154.679688 191.105469 155.027344 191.195312 155.371094 C 192.015625 158.226562 192.242188 161.25 191.835938 164.210938 C 194.457031 157.554688 192.136719 149.984375 186.257812 145.914062 L 186.242188 145.914062 C 184.042969 144.523438 181.484375 143.789062 178.867188 143.773438 Z M 114.265625 140.542969 C 110.585938 140.558594 106.917969 140.601562 103.253906 140.707031 C 119.964844 141.890625 136.707031 142.863281 153.449219 143.59375 C 153.359375 144.449219 152.757812 145.152344 151.953125 145.40625 C 147.328125 146.855469 142.449219 147.261719 137.648438 146.632812 C 126.1875 145.871094 114.683594 146.019531 103.238281 147.097656 C 114.667969 146.902344 126.097656 147.277344 137.484375 148.234375 C 142.496094 148.890625 147.597656 148.457031 152.429688 146.945312 C 153.972656 146.46875 155.035156 145.046875 155.0625 143.429688 L 155.0625 142.113281 C 141.480469 141.035156 127.863281 140.511719 114.234375 140.542969 Z M 189.9375 130.398438 C 173.433594 130.339844 157.023438 132.660156 141.179688 137.296875 C 162.664062 136.519531 184.164062 138.238281 205.242188 142.398438 C 219.996094 146.125 235.433594 146.257812 250.261719 142.816406 C 256.230469 141.636719 262.4375 143.042969 267.332031 146.675781 C 261.585938 141.394531 253.492188 139.527344 246.027344 141.769531 C 245.847656 141.816406 245.667969 141.859375 245.488281 141.890625 L 245.472656 141.890625 C 232.53125 144.402344 219.214844 144.179688 206.363281 141.230469 C 188.980469 137.625 171.28125 135.769531 153.539062 135.679688 C 166.148438 132.492188 179.074219 130.730469 192.078125 130.429688 C 191.359375 130.414062 190.640625 130.398438 189.921875 130.398438 Z M 188.007812 125.867188 C 182.636719 125.894531 177.296875 126.375 172 127.273438 C 149.167969 131.476562 126.25 135.203125 103.253906 138.433594 C 113.742188 138.554688 124.226562 137.761719 134.582031 136.070312 C 147.222656 132.808594 160.046875 130.339844 172.988281 128.664062 C 195.203125 125.476562 217.855469 129.113281 237.949219 139.078125 C 222.761719 130.324219 205.527344 125.761719 188.007812 125.867188 "
            fill-opacity="1" fill-rule="nonzero" />
    </g>
    <g fill="#ffbd59" fill-opacity="1">
        <g transform="translate(108.150128, 220.698605)">
            <g>
                <path
                    d="M 23.09375 0 L 17.828125 0 L 7.5625 -16.84375 L 7.5625 0 L 2.28125 0 L 2.28125 -25.59375 L 7.5625 -25.59375 L 17.84375 -8.71875 L 17.84375 -25.59375 L 23.09375 -25.59375 Z M 23.09375 0 " />
            </g>
        </g>
    </g>
    <g fill="#ffbd59" fill-opacity="1">
        <g transform="translate(146.735683, 220.698605)">
            <g>
                <path
                    d="M 7.890625 0 L 2.625 0 L 2.625 -25.59375 L 7.890625 -25.59375 Z M 7.890625 0 " />
            </g>
        </g>
    </g>
    <g fill="#ffbd59" fill-opacity="1">
        <g transform="translate(170.402275, 220.698605)">
            <g>
                <path
                    d="M 21.546875 -21.328125 L 13.71875 -21.328125 L 13.71875 0 L 8.4375 0 L 8.4375 -21.328125 L 0.703125 -21.328125 L 0.703125 -25.59375 L 21.546875 -25.59375 Z M 21.546875 -21.328125 " />
            </g>
        </g>
    </g>
    <g fill="#ffbd59" fill-opacity="1">
        <g transform="translate(205.842382, 220.698605)">
            <g>
                <path
                    d="M 11.765625 -9.375 L 7.5625 -9.375 L 7.5625 0 L 2.28125 0 L 2.28125 -25.59375 L 11.796875 -25.59375 C 14.816406 -25.59375 17.144531 -24.914062 18.78125 -23.5625 C 20.425781 -22.21875 21.25 -20.316406 21.25 -17.859375 C 21.25 -16.109375 20.867188 -14.648438 20.109375 -13.484375 C 19.359375 -12.328125 18.21875 -11.398438 16.6875 -10.703125 L 22.21875 -0.25 L 22.21875 0 L 16.5625 0 Z M 7.5625 -13.640625 L 11.8125 -13.640625 C 13.132812 -13.640625 14.160156 -13.972656 14.890625 -14.640625 C 15.617188 -15.316406 15.984375 -16.25 15.984375 -17.4375 C 15.984375 -18.644531 15.640625 -19.59375 14.953125 -20.28125 C 14.265625 -20.976562 13.210938 -21.328125 11.796875 -21.328125 L 7.5625 -21.328125 Z M 7.5625 -13.640625 " />
            </g>
        </g>
    </g>
    <g fill="#ffbd59" fill-opacity="1">
        <g transform="translate(241.985385, 220.698605)">
            <g>
                <path
                    d="M 23.3125 -12.21875 C 23.3125 -9.695312 22.863281 -7.488281 21.96875 -5.59375 C 21.082031 -3.695312 19.804688 -2.226562 18.140625 -1.1875 C 16.484375 -0.15625 14.585938 0.359375 12.453125 0.359375 C 10.328125 0.359375 8.429688 -0.148438 6.765625 -1.171875 C 5.097656 -2.191406 3.804688 -3.648438 2.890625 -5.546875 C 1.984375 -7.441406 1.523438 -9.617188 1.515625 -12.078125 L 1.515625 -13.34375 C 1.515625 -15.863281 1.96875 -18.082031 2.875 -20 C 3.78125 -21.914062 5.0625 -23.382812 6.71875 -24.40625 C 8.382812 -25.4375 10.28125 -25.953125 12.40625 -25.953125 C 14.539062 -25.953125 16.4375 -25.4375 18.09375 -24.40625 C 19.75 -23.382812 21.03125 -21.914062 21.9375 -20 C 22.851562 -18.082031 23.3125 -15.867188 23.3125 -13.359375 Z M 17.96875 -13.375 C 17.96875 -16.0625 17.484375 -18.101562 16.515625 -19.5 C 15.554688 -20.894531 14.1875 -21.59375 12.40625 -21.59375 C 10.632812 -21.59375 9.269531 -20.898438 8.3125 -19.515625 C 7.351562 -18.140625 6.867188 -16.125 6.859375 -13.46875 L 6.859375 -12.21875 C 6.859375 -9.601562 7.335938 -7.570312 8.296875 -6.125 C 9.253906 -4.6875 10.640625 -3.96875 12.453125 -3.96875 C 14.210938 -3.96875 15.566406 -4.660156 16.515625 -6.046875 C 17.472656 -7.441406 17.957031 -9.46875 17.96875 -12.125 Z M 17.96875 -13.375 " />
            </g>
        </g>
    </g>
</svg>